<?xml version="1.0" encoding="utf-8"?>
<!-- Generator: Adobe Illustrator 27.1.1, SVG Export Plug-In . SVG Version: 6.00 Build 0)  -->
<svg version="1.1" xmlns="http://www.w3.org/2000/svg" xmlns:xlink="http://www.w3.org/1999/xlink" x="0px" y="0px"
	 viewBox="0 0 852 888" style="enable-background:new 0 0 852 888;" xml:space="preserve">
<style type="text/css">
	.st0{fill:none;stroke:#C9E0FA;stroke-width:2;stroke-dasharray:4,4;}
</style>
<g id="Слой_1">
	<path class="st0" d="M19.7,106.8H822c16.6,0,30,17.5,30,39v85.7c0,21.5-13.4,39-30,39H32c-16.6,0-30,17.5-30,39V394
		c0,21.5,13.4,39,30,39h570.4H822c16.6,0,30,17.5,30,39v85.8c0,21.5-13.4,39-30,39H32c-16.6,0-30,17.5-30,39v87.1
		c0,21.5,13.4,39,30,39h720"/>
</g>
<g id="Слой_2">
</g>
</svg>
